<mxfile host="app.diagrams.net" modified="2024-03-07T15:48:59.799Z" agent="Mozilla/5.0 (X11; Ubuntu; Linux x86_64; rv:123.0) Gecko/20100101 Firefox/123.0" etag="yH3fpgSYiZQ9QfRbDd17" version="24.0.0" type="google">
  <diagram name="Page-1" id="lU4HYY9iMri2MdEy_FQ0">
    <mxGraphModel grid="1" page="1" gridSize="10" guides="1" tooltips="1" connect="1" arrows="1" fold="1" pageScale="1" pageWidth="850" pageHeight="1100" math="0" shadow="0">
      <root>
        <mxCell id="0" />
        <mxCell id="1" parent="0" />
        <mxCell id="cd8bKz7wEy6PBZtArWkd-131" style="edgeStyle=orthogonalEdgeStyle;rounded=0;orthogonalLoop=1;jettySize=auto;html=1;" edge="1" parent="1" source="cd8bKz7wEy6PBZtArWkd-26" target="cd8bKz7wEy6PBZtArWkd-117">
          <mxGeometry relative="1" as="geometry">
            <Array as="points">
              <mxPoint x="630" y="470" />
              <mxPoint x="630" y="470" />
            </Array>
          </mxGeometry>
        </mxCell>
        <mxCell id="SpG1soqtBWokwoHgifJK-80" style="edgeStyle=orthogonalEdgeStyle;rounded=0;orthogonalLoop=1;jettySize=auto;html=1;" edge="1" parent="1" source="cd8bKz7wEy6PBZtArWkd-26" target="cd8bKz7wEy6PBZtArWkd-43">
          <mxGeometry relative="1" as="geometry">
            <Array as="points">
              <mxPoint x="580" y="420" />
              <mxPoint x="580" y="420" />
            </Array>
          </mxGeometry>
        </mxCell>
        <mxCell id="SpG1soqtBWokwoHgifJK-126" style="edgeStyle=orthogonalEdgeStyle;rounded=0;orthogonalLoop=1;jettySize=auto;html=1;" edge="1" parent="1" source="cd8bKz7wEy6PBZtArWkd-26" target="cd8bKz7wEy6PBZtArWkd-37">
          <mxGeometry relative="1" as="geometry">
            <Array as="points">
              <mxPoint x="800" y="290" />
              <mxPoint x="800" y="290" />
            </Array>
          </mxGeometry>
        </mxCell>
        <mxCell id="cd8bKz7wEy6PBZtArWkd-26" value="ASS" style="swimlane;fontStyle=1;align=center;verticalAlign=top;childLayout=stackLayout;horizontal=1;startSize=26;horizontalStack=0;resizeParent=1;resizeParentMax=0;resizeLast=0;collapsible=1;marginBottom=0;whiteSpace=wrap;html=1;" vertex="1" parent="1">
          <mxGeometry x="580" y="360" width="160" height="86" as="geometry">
            <mxRectangle x="405" y="353" width="70" height="30" as="alternateBounds" />
          </mxGeometry>
        </mxCell>
        <mxCell id="cd8bKz7wEy6PBZtArWkd-27" value="+ state: State" style="text;strokeColor=none;fillColor=none;align=left;verticalAlign=top;spacingLeft=4;spacingRight=4;overflow=hidden;rotatable=0;points=[[0,0.5],[1,0.5]];portConstraint=eastwest;whiteSpace=wrap;html=1;" vertex="1" parent="cd8bKz7wEy6PBZtArWkd-26">
          <mxGeometry y="26" width="160" height="26" as="geometry" />
        </mxCell>
        <mxCell id="cd8bKz7wEy6PBZtArWkd-28" value="" style="line;strokeWidth=1;fillColor=none;align=left;verticalAlign=middle;spacingTop=-1;spacingLeft=3;spacingRight=3;rotatable=0;labelPosition=right;points=[];portConstraint=eastwest;strokeColor=inherit;" vertex="1" parent="cd8bKz7wEy6PBZtArWkd-26">
          <mxGeometry y="52" width="160" height="8" as="geometry" />
        </mxCell>
        <mxCell id="SpG1soqtBWokwoHgifJK-5" value="+ calculateState(): void" style="text;strokeColor=none;fillColor=none;align=left;verticalAlign=top;spacingLeft=4;spacingRight=4;overflow=hidden;rotatable=0;points=[[0,0.5],[1,0.5]];portConstraint=eastwest;whiteSpace=wrap;html=1;" vertex="1" parent="cd8bKz7wEy6PBZtArWkd-26">
          <mxGeometry y="60" width="160" height="26" as="geometry" />
        </mxCell>
        <mxCell id="SpG1soqtBWokwoHgifJK-77" style="edgeStyle=orthogonalEdgeStyle;rounded=0;orthogonalLoop=1;jettySize=auto;html=1;" edge="1" parent="1" source="cd8bKz7wEy6PBZtArWkd-32" target="SpG1soqtBWokwoHgifJK-55">
          <mxGeometry relative="1" as="geometry">
            <Array as="points">
              <mxPoint x="-80" y="380" />
            </Array>
          </mxGeometry>
        </mxCell>
        <mxCell id="SpG1soqtBWokwoHgifJK-114" style="edgeStyle=orthogonalEdgeStyle;rounded=0;orthogonalLoop=1;jettySize=auto;html=1;" edge="1" parent="1" source="cd8bKz7wEy6PBZtArWkd-32" target="SpG1soqtBWokwoHgifJK-100">
          <mxGeometry relative="1" as="geometry">
            <Array as="points">
              <mxPoint x="130" y="160" />
              <mxPoint x="130" y="160" />
            </Array>
          </mxGeometry>
        </mxCell>
        <mxCell id="SpG1soqtBWokwoHgifJK-125" value="updates" style="edgeLabel;html=1;align=center;verticalAlign=middle;resizable=0;points=[];" connectable="0" vertex="1" parent="SpG1soqtBWokwoHgifJK-114">
          <mxGeometry x="-0.1001" y="2" relative="1" as="geometry">
            <mxPoint y="1" as="offset" />
          </mxGeometry>
        </mxCell>
        <mxCell id="SpG1soqtBWokwoHgifJK-115" style="edgeStyle=orthogonalEdgeStyle;rounded=0;orthogonalLoop=1;jettySize=auto;html=1;" edge="1" parent="1" source="cd8bKz7wEy6PBZtArWkd-32" target="SpG1soqtBWokwoHgifJK-38">
          <mxGeometry relative="1" as="geometry">
            <Array as="points">
              <mxPoint x="-80" y="520" />
            </Array>
          </mxGeometry>
        </mxCell>
        <mxCell id="SpG1soqtBWokwoHgifJK-124" value="updates" style="edgeLabel;html=1;align=center;verticalAlign=middle;resizable=0;points=[];" connectable="0" vertex="1" parent="SpG1soqtBWokwoHgifJK-115">
          <mxGeometry x="0.3905" y="2" relative="1" as="geometry">
            <mxPoint y="-128" as="offset" />
          </mxGeometry>
        </mxCell>
        <mxCell id="cd8bKz7wEy6PBZtArWkd-32" value="CAN Receiver" style="swimlane;fontStyle=1;align=center;verticalAlign=top;childLayout=stackLayout;horizontal=1;startSize=26;horizontalStack=0;resizeParent=1;resizeParentMax=0;resizeLast=0;collapsible=1;marginBottom=0;whiteSpace=wrap;html=1;" vertex="1" parent="1">
          <mxGeometry x="-140" y="-20" width="240" height="290" as="geometry" />
        </mxCell>
        <mxCell id="cd8bKz7wEy6PBZtArWkd-34" value="" style="line;strokeWidth=1;fillColor=none;align=left;verticalAlign=middle;spacingTop=-1;spacingLeft=3;spacingRight=3;rotatable=0;labelPosition=right;points=[];portConstraint=eastwest;strokeColor=inherit;" vertex="1" parent="cd8bKz7wEy6PBZtArWkd-32">
          <mxGeometry y="26" width="240" height="8" as="geometry" />
        </mxCell>
        <mxCell id="cd8bKz7wEy6PBZtArWkd-113" value="+ canSetup(): bool" style="text;strokeColor=none;fillColor=none;align=left;verticalAlign=top;spacingLeft=4;spacingRight=4;overflow=hidden;rotatable=0;points=[[0,0.5],[1,0.5]];portConstraint=eastwest;whiteSpace=wrap;html=1;" vertex="1" parent="cd8bKz7wEy6PBZtArWkd-32">
          <mxGeometry y="34" width="240" height="30" as="geometry" />
        </mxCell>
        <mxCell id="cd8bKz7wEy6PBZtArWkd-114" value="+ mainCallback(): void" style="text;strokeColor=none;fillColor=none;align=left;verticalAlign=top;spacingLeft=4;spacingRight=4;overflow=hidden;rotatable=0;points=[[0,0.5],[1,0.5]];portConstraint=eastwest;whiteSpace=wrap;html=1;" vertex="1" parent="cd8bKz7wEy6PBZtArWkd-32">
          <mxGeometry y="64" width="240" height="30" as="geometry" />
        </mxCell>
        <mxCell id="cd8bKz7wEy6PBZtArWkd-35" value="+ emergenySignalCallback(message): void" style="text;strokeColor=none;fillColor=none;align=left;verticalAlign=top;spacingLeft=4;spacingRight=4;overflow=hidden;rotatable=0;points=[[0,0.5],[1,0.5]];portConstraint=eastwest;whiteSpace=wrap;html=1;" vertex="1" parent="cd8bKz7wEy6PBZtArWkd-32">
          <mxGeometry y="94" width="240" height="26" as="geometry" />
        </mxCell>
        <mxCell id="cd8bKz7wEy6PBZtArWkd-51" value="+ missionFinishedCallback(message): void" style="text;strokeColor=none;fillColor=none;align=left;verticalAlign=top;spacingLeft=4;spacingRight=4;overflow=hidden;rotatable=0;points=[[0,0.5],[1,0.5]];portConstraint=eastwest;whiteSpace=wrap;html=1;" vertex="1" parent="cd8bKz7wEy6PBZtArWkd-32">
          <mxGeometry y="120" width="240" height="26" as="geometry" />
        </mxCell>
        <mxCell id="cd8bKz7wEy6PBZtArWkd-103" value="+ pcAliveCallback(message): void" style="text;strokeColor=none;fillColor=none;align=left;verticalAlign=top;spacingLeft=4;spacingRight=4;overflow=hidden;rotatable=0;points=[[0,0.5],[1,0.5]];portConstraint=eastwest;whiteSpace=wrap;html=1;" vertex="1" parent="cd8bKz7wEy6PBZtArWkd-32">
          <mxGeometry y="146" width="240" height="24" as="geometry" />
        </mxCell>
        <mxCell id="cd8bKz7wEy6PBZtArWkd-104" value="+ rlWheelCallback(message): void" style="text;strokeColor=none;fillColor=none;align=left;verticalAlign=top;spacingLeft=4;spacingRight=4;overflow=hidden;rotatable=0;points=[[0,0.5],[1,0.5]];portConstraint=eastwest;whiteSpace=wrap;html=1;" vertex="1" parent="cd8bKz7wEy6PBZtArWkd-32">
          <mxGeometry y="170" width="240" height="30" as="geometry" />
        </mxCell>
        <mxCell id="cd8bKz7wEy6PBZtArWkd-112" value="+ hydraulicLineCallback(message): void" style="text;strokeColor=none;fillColor=none;align=left;verticalAlign=top;spacingLeft=4;spacingRight=4;overflow=hidden;rotatable=0;points=[[0,0.5],[1,0.5]];portConstraint=eastwest;whiteSpace=wrap;html=1;" vertex="1" parent="cd8bKz7wEy6PBZtArWkd-32">
          <mxGeometry y="200" width="240" height="30" as="geometry" />
        </mxCell>
        <mxCell id="Lg1imSW494IqQJo7O32--5" value="+ r2dCallback(message): void" style="text;strokeColor=none;fillColor=none;align=left;verticalAlign=top;spacingLeft=4;spacingRight=4;overflow=hidden;rotatable=0;points=[[0,0.5],[1,0.5]];portConstraint=eastwest;whiteSpace=wrap;html=1;" vertex="1" parent="cd8bKz7wEy6PBZtArWkd-32">
          <mxGeometry y="230" width="240" height="30" as="geometry" />
        </mxCell>
        <mxCell id="L4YBCKKpOaJ2ESofUwPg-1" value="+ bamocarTensionCallback(message): void" style="text;strokeColor=none;fillColor=none;align=left;verticalAlign=top;spacingLeft=4;spacingRight=4;overflow=hidden;rotatable=0;points=[[0,0.5],[1,0.5]];portConstraint=eastwest;whiteSpace=wrap;html=1;" vertex="1" parent="cd8bKz7wEy6PBZtArWkd-32">
          <mxGeometry y="260" width="240" height="30" as="geometry" />
        </mxCell>
        <mxCell id="cd8bKz7wEy6PBZtArWkd-37" value="Actors" style="swimlane;fontStyle=1;align=center;verticalAlign=top;childLayout=stackLayout;horizontal=1;startSize=26;horizontalStack=0;resizeParent=1;resizeParentMax=0;resizeLast=0;collapsible=1;marginBottom=0;whiteSpace=wrap;html=1;" vertex="1" parent="1">
          <mxGeometry x="770" y="70" width="160" height="164" as="geometry" />
        </mxCell>
        <mxCell id="cd8bKz7wEy6PBZtArWkd-39" value="" style="line;strokeWidth=1;fillColor=none;align=left;verticalAlign=middle;spacingTop=-1;spacingLeft=3;spacingRight=3;rotatable=0;labelPosition=right;points=[];portConstraint=eastwest;strokeColor=inherit;" vertex="1" parent="cd8bKz7wEy6PBZtArWkd-37">
          <mxGeometry y="26" width="160" height="8" as="geometry" />
        </mxCell>
        <mxCell id="cd8bKz7wEy6PBZtArWkd-40" value="+ ebsActivate(): bool" style="text;strokeColor=none;fillColor=none;align=left;verticalAlign=top;spacingLeft=4;spacingRight=4;overflow=hidden;rotatable=0;points=[[0,0.5],[1,0.5]];portConstraint=eastwest;whiteSpace=wrap;html=1;" vertex="1" parent="cd8bKz7wEy6PBZtArWkd-37">
          <mxGeometry y="34" width="160" height="26" as="geometry" />
        </mxCell>
        <mxCell id="cd8bKz7wEy6PBZtArWkd-92" value="+ openSDC(): bool" style="text;strokeColor=none;fillColor=none;align=left;verticalAlign=top;spacingLeft=4;spacingRight=4;overflow=hidden;rotatable=0;points=[[0,0.5],[1,0.5]];portConstraint=eastwest;whiteSpace=wrap;html=1;" vertex="1" parent="cd8bKz7wEy6PBZtArWkd-37">
          <mxGeometry y="60" width="160" height="26" as="geometry" />
        </mxCell>
        <mxCell id="SpG1soqtBWokwoHgifJK-14" value="+ assiLights(): bool" style="text;strokeColor=none;fillColor=none;align=left;verticalAlign=top;spacingLeft=4;spacingRight=4;overflow=hidden;rotatable=0;points=[[0,0.5],[1,0.5]];portConstraint=eastwest;whiteSpace=wrap;html=1;" vertex="1" parent="cd8bKz7wEy6PBZtArWkd-37">
          <mxGeometry y="86" width="160" height="26" as="geometry" />
        </mxCell>
        <mxCell id="Lg1imSW494IqQJo7O32--6" value="+ closeSDC(): bool" style="text;strokeColor=none;fillColor=none;align=left;verticalAlign=top;spacingLeft=4;spacingRight=4;overflow=hidden;rotatable=0;points=[[0,0.5],[1,0.5]];portConstraint=eastwest;whiteSpace=wrap;html=1;" vertex="1" parent="cd8bKz7wEy6PBZtArWkd-37">
          <mxGeometry y="112" width="160" height="26" as="geometry" />
        </mxCell>
        <mxCell id="cd8bKz7wEy6PBZtArWkd-93" value="&lt;div&gt;+ turnBuzzerOnFor(time)&lt;/div&gt;" style="text;strokeColor=none;fillColor=none;align=left;verticalAlign=top;spacingLeft=4;spacingRight=4;overflow=hidden;rotatable=0;points=[[0,0.5],[1,0.5]];portConstraint=eastwest;whiteSpace=wrap;html=1;" vertex="1" parent="cd8bKz7wEy6PBZtArWkd-37">
          <mxGeometry y="138" width="160" height="26" as="geometry" />
        </mxCell>
        <mxCell id="SpG1soqtBWokwoHgifJK-82" style="edgeStyle=orthogonalEdgeStyle;rounded=0;orthogonalLoop=1;jettySize=auto;html=1;" edge="1" parent="1" source="cd8bKz7wEy6PBZtArWkd-43" target="SpG1soqtBWokwoHgifJK-55">
          <mxGeometry relative="1" as="geometry">
            <Array as="points">
              <mxPoint x="210" y="470" />
              <mxPoint x="210" y="380" />
            </Array>
          </mxGeometry>
        </mxCell>
        <mxCell id="Gp4d0n2mqowx_aEyTnq8-3" style="edgeStyle=orthogonalEdgeStyle;rounded=0;orthogonalLoop=1;jettySize=auto;html=1;" edge="1" parent="1" source="cd8bKz7wEy6PBZtArWkd-43" target="SpG1soqtBWokwoHgifJK-100">
          <mxGeometry relative="1" as="geometry">
            <Array as="points">
              <mxPoint x="310" y="290" />
              <mxPoint x="310" y="290" />
            </Array>
          </mxGeometry>
        </mxCell>
        <mxCell id="Lg1imSW494IqQJo7O32--7" value="checks" style="edgeLabel;html=1;align=center;verticalAlign=middle;resizable=0;points=[];" connectable="0" vertex="1" parent="Gp4d0n2mqowx_aEyTnq8-3">
          <mxGeometry x="-0.2164" y="-1" relative="1" as="geometry">
            <mxPoint as="offset" />
          </mxGeometry>
        </mxCell>
        <mxCell id="cd8bKz7wEy6PBZtArWkd-43" value="Orchestrator" style="swimlane;fontStyle=1;align=center;verticalAlign=top;childLayout=stackLayout;horizontal=1;startSize=26;horizontalStack=0;resizeParent=1;resizeParentMax=0;resizeLast=0;collapsible=1;marginBottom=0;whiteSpace=wrap;html=1;" vertex="1" parent="1">
          <mxGeometry x="270" y="336" width="220" height="328" as="geometry" />
        </mxCell>
        <mxCell id="SpG1soqtBWokwoHgifJK-26" value="+ r2d: bool" style="text;strokeColor=none;fillColor=none;align=left;verticalAlign=top;spacingLeft=4;spacingRight=4;overflow=hidden;rotatable=0;points=[[0,0.5],[1,0.5]];portConstraint=eastwest;whiteSpace=wrap;html=1;" vertex="1" parent="cd8bKz7wEy6PBZtArWkd-43">
          <mxGeometry y="26" width="220" height="26" as="geometry" />
        </mxCell>
        <mxCell id="SpG1soqtBWokwoHgifJK-29" value="+ emergency: bool" style="text;strokeColor=none;fillColor=none;align=left;verticalAlign=top;spacingLeft=4;spacingRight=4;overflow=hidden;rotatable=0;points=[[0,0.5],[1,0.5]];portConstraint=eastwest;whiteSpace=wrap;html=1;" vertex="1" parent="cd8bKz7wEy6PBZtArWkd-43">
          <mxGeometry y="52" width="220" height="26" as="geometry" />
        </mxCell>
        <mxCell id="SpG1soqtBWokwoHgifJK-30" value="+ sdc_state: bool" style="text;strokeColor=none;fillColor=none;align=left;verticalAlign=top;spacingLeft=4;spacingRight=4;overflow=hidden;rotatable=0;points=[[0,0.5],[1,0.5]];portConstraint=eastwest;whiteSpace=wrap;html=1;" vertex="1" parent="cd8bKz7wEy6PBZtArWkd-43">
          <mxGeometry y="78" width="220" height="26" as="geometry" />
        </mxCell>
        <mxCell id="SpG1soqtBWokwoHgifJK-34" value="+ ebs_sound: timestamp" style="text;strokeColor=none;fillColor=none;align=left;verticalAlign=top;spacingLeft=4;spacingRight=4;overflow=hidden;rotatable=0;points=[[0,0.5],[1,0.5]];portConstraint=eastwest;whiteSpace=wrap;html=1;" vertex="1" parent="cd8bKz7wEy6PBZtArWkd-43">
          <mxGeometry y="104" width="220" height="26" as="geometry" />
        </mxCell>
        <mxCell id="SpG1soqtBWokwoHgifJK-31" value="+ asms_state: bool" style="text;strokeColor=none;fillColor=none;align=left;verticalAlign=top;spacingLeft=4;spacingRight=4;overflow=hidden;rotatable=0;points=[[0,0.5],[1,0.5]];portConstraint=eastwest;whiteSpace=wrap;html=1;" vertex="1" parent="cd8bKz7wEy6PBZtArWkd-43">
          <mxGeometry y="130" width="220" height="26" as="geometry" />
        </mxCell>
        <mxCell id="cd8bKz7wEy6PBZtArWkd-45" value="" style="line;strokeWidth=1;fillColor=none;align=left;verticalAlign=middle;spacingTop=-1;spacingLeft=3;spacingRight=3;rotatable=0;labelPosition=right;points=[];portConstraint=eastwest;strokeColor=inherit;" vertex="1" parent="cd8bKz7wEy6PBZtArWkd-43">
          <mxGeometry y="156" width="220" height="8" as="geometry" />
        </mxCell>
        <mxCell id="cd8bKz7wEy6PBZtArWkd-46" value="+ r2dCheckup(): bool" style="text;strokeColor=none;fillColor=none;align=left;verticalAlign=top;spacingLeft=4;spacingRight=4;overflow=hidden;rotatable=0;points=[[0,0.5],[1,0.5]];portConstraint=eastwest;whiteSpace=wrap;html=1;" vertex="1" parent="cd8bKz7wEy6PBZtArWkd-43">
          <mxGeometry y="164" width="220" height="26" as="geometry" />
        </mxCell>
        <mxCell id="cd8bKz7wEy6PBZtArWkd-30" value="+ performEmergencyChecks(): bool" style="text;strokeColor=none;fillColor=none;align=left;verticalAlign=top;spacingLeft=4;spacingRight=4;overflow=hidden;rotatable=0;points=[[0,0.5],[1,0.5]];portConstraint=eastwest;whiteSpace=wrap;html=1;" vertex="1" parent="cd8bKz7wEy6PBZtArWkd-43">
          <mxGeometry y="190" width="220" height="26" as="geometry" />
        </mxCell>
        <mxCell id="cd8bKz7wEy6PBZtArWkd-52" value="+ missionFinishedCheckup(): bool" style="text;strokeColor=none;fillColor=none;align=left;verticalAlign=top;spacingLeft=4;spacingRight=4;overflow=hidden;rotatable=0;points=[[0,0.5],[1,0.5]];portConstraint=eastwest;whiteSpace=wrap;html=1;" vertex="1" parent="cd8bKz7wEy6PBZtArWkd-43">
          <mxGeometry y="216" width="220" height="28" as="geometry" />
        </mxCell>
        <mxCell id="cd8bKz7wEy6PBZtArWkd-126" value="+ initialCheckup(): bool" style="text;strokeColor=none;fillColor=none;align=left;verticalAlign=top;spacingLeft=4;spacingRight=4;overflow=hidden;rotatable=0;points=[[0,0.5],[1,0.5]];portConstraint=eastwest;whiteSpace=wrap;html=1;" vertex="1" parent="cd8bKz7wEy6PBZtArWkd-43">
          <mxGeometry y="244" width="220" height="28" as="geometry" />
        </mxCell>
        <mxCell id="SpG1soqtBWokwoHgifJK-73" value="+ manualDrivingCheckup(): bool" style="text;strokeColor=none;fillColor=none;align=left;verticalAlign=top;spacingLeft=4;spacingRight=4;overflow=hidden;rotatable=0;points=[[0,0.5],[1,0.5]];portConstraint=eastwest;whiteSpace=wrap;html=1;" vertex="1" parent="cd8bKz7wEy6PBZtArWkd-43">
          <mxGeometry y="272" width="220" height="28" as="geometry" />
        </mxCell>
        <mxCell id="SpG1soqtBWokwoHgifJK-72" value="+ offCheckup(): bool" style="text;strokeColor=none;fillColor=none;align=left;verticalAlign=top;spacingLeft=4;spacingRight=4;overflow=hidden;rotatable=0;points=[[0,0.5],[1,0.5]];portConstraint=eastwest;whiteSpace=wrap;html=1;" vertex="1" parent="cd8bKz7wEy6PBZtArWkd-43">
          <mxGeometry y="300" width="220" height="28" as="geometry" />
        </mxCell>
        <mxCell id="cd8bKz7wEy6PBZtArWkd-47" value="Entries" style="swimlane;fontStyle=1;align=center;verticalAlign=top;childLayout=stackLayout;horizontal=1;startSize=26;horizontalStack=0;resizeParent=1;resizeParentMax=0;resizeLast=0;collapsible=1;marginBottom=0;whiteSpace=wrap;html=1;" vertex="1" parent="1">
          <mxGeometry x="530" y="-40" width="220" height="296" as="geometry" />
        </mxCell>
        <mxCell id="SpG1soqtBWokwoHgifJK-68" value="+ asms_on: bool" style="text;strokeColor=none;fillColor=none;align=left;verticalAlign=top;spacingLeft=4;spacingRight=4;overflow=hidden;rotatable=0;points=[[0,0.5],[1,0.5]];portConstraint=eastwest;whiteSpace=wrap;html=1;" vertex="1" parent="cd8bKz7wEy6PBZtArWkd-47">
          <mxGeometry y="26" width="220" height="30" as="geometry" />
        </mxCell>
        <mxCell id="SpG1soqtBWokwoHgifJK-121" value="+ watchdog_state: bool" style="text;strokeColor=none;fillColor=none;align=left;verticalAlign=top;spacingLeft=4;spacingRight=4;overflow=hidden;rotatable=0;points=[[0,0.5],[1,0.5]];portConstraint=eastwest;whiteSpace=wrap;html=1;" vertex="1" parent="cd8bKz7wEy6PBZtArWkd-47">
          <mxGeometry y="56" width="220" height="30" as="geometry" />
        </mxCell>
        <mxCell id="SpG1soqtBWokwoHgifJK-69" value="+ aats_on: bool" style="text;strokeColor=none;fillColor=none;align=left;verticalAlign=top;spacingLeft=4;spacingRight=4;overflow=hidden;rotatable=0;points=[[0,0.5],[1,0.5]];portConstraint=eastwest;whiteSpace=wrap;html=1;" vertex="1" parent="cd8bKz7wEy6PBZtArWkd-47">
          <mxGeometry y="86" width="220" height="30" as="geometry" />
        </mxCell>
        <mxCell id="cd8bKz7wEy6PBZtArWkd-97" value="+ pneumatic_line_pressure: double" style="text;strokeColor=none;fillColor=none;align=left;verticalAlign=top;spacingLeft=4;spacingRight=4;overflow=hidden;rotatable=0;points=[[0,0.5],[1,0.5]];portConstraint=eastwest;whiteSpace=wrap;html=1;" vertex="1" parent="cd8bKz7wEy6PBZtArWkd-47">
          <mxGeometry y="116" width="220" height="30" as="geometry" />
        </mxCell>
        <mxCell id="cd8bKz7wEy6PBZtArWkd-99" value="+ rr_wheel_rpm: double" style="text;strokeColor=none;fillColor=none;align=left;verticalAlign=top;spacingLeft=4;spacingRight=4;overflow=hidden;rotatable=0;points=[[0,0.5],[1,0.5]];portConstraint=eastwest;whiteSpace=wrap;html=1;" vertex="1" parent="cd8bKz7wEy6PBZtArWkd-47">
          <mxGeometry y="146" width="220" height="26" as="geometry" />
        </mxCell>
        <mxCell id="cd8bKz7wEy6PBZtArWkd-49" value="" style="line;strokeWidth=1;fillColor=none;align=left;verticalAlign=middle;spacingTop=-1;spacingLeft=3;spacingRight=3;rotatable=0;labelPosition=right;points=[];portConstraint=eastwest;strokeColor=inherit;" vertex="1" parent="cd8bKz7wEy6PBZtArWkd-47">
          <mxGeometry y="172" width="220" height="8" as="geometry" />
        </mxCell>
        <mxCell id="SpG1soqtBWokwoHgifJK-75" value="+ watchdog(): bool" style="text;strokeColor=none;fillColor=none;align=left;verticalAlign=top;spacingLeft=4;spacingRight=4;overflow=hidden;rotatable=0;points=[[0,0.5],[1,0.5]];portConstraint=eastwest;whiteSpace=wrap;html=1;" vertex="1" parent="cd8bKz7wEy6PBZtArWkd-47">
          <mxGeometry y="180" width="220" height="26" as="geometry" />
        </mxCell>
        <mxCell id="cd8bKz7wEy6PBZtArWkd-50" value="+ updateRR(): double" style="text;strokeColor=none;fillColor=none;align=left;verticalAlign=top;spacingLeft=4;spacingRight=4;overflow=hidden;rotatable=0;points=[[0,0.5],[1,0.5]];portConstraint=eastwest;whiteSpace=wrap;html=1;" vertex="1" parent="cd8bKz7wEy6PBZtArWkd-47">
          <mxGeometry y="206" width="220" height="30" as="geometry" />
        </mxCell>
        <mxCell id="SpG1soqtBWokwoHgifJK-120" value="+ updateButtons(): double" style="text;strokeColor=none;fillColor=none;align=left;verticalAlign=top;spacingLeft=4;spacingRight=4;overflow=hidden;rotatable=0;points=[[0,0.5],[1,0.5]];portConstraint=eastwest;whiteSpace=wrap;html=1;" vertex="1" parent="cd8bKz7wEy6PBZtArWkd-47">
          <mxGeometry y="236" width="220" height="30" as="geometry" />
        </mxCell>
        <mxCell id="cd8bKz7wEy6PBZtArWkd-101" value="+ updatePneumatic(): double" style="text;strokeColor=none;fillColor=none;align=left;verticalAlign=top;spacingLeft=4;spacingRight=4;overflow=hidden;rotatable=0;points=[[0,0.5],[1,0.5]];portConstraint=eastwest;whiteSpace=wrap;html=1;" vertex="1" parent="cd8bKz7wEy6PBZtArWkd-47">
          <mxGeometry y="266" width="220" height="30" as="geometry" />
        </mxCell>
        <mxCell id="cd8bKz7wEy6PBZtArWkd-59" value="CAN Sender" style="swimlane;fontStyle=1;align=center;verticalAlign=top;childLayout=stackLayout;horizontal=1;startSize=26;horizontalStack=0;resizeParent=1;resizeParentMax=0;resizeLast=0;collapsible=1;marginBottom=0;whiteSpace=wrap;html=1;" vertex="1" parent="1">
          <mxGeometry x="260" y="-50" width="160" height="112" as="geometry" />
        </mxCell>
        <mxCell id="cd8bKz7wEy6PBZtArWkd-61" value="" style="line;strokeWidth=1;fillColor=none;align=left;verticalAlign=middle;spacingTop=-1;spacingLeft=3;spacingRight=3;rotatable=0;labelPosition=right;points=[];portConstraint=eastwest;strokeColor=inherit;" vertex="1" parent="cd8bKz7wEy6PBZtArWkd-59">
          <mxGeometry y="26" width="160" height="8" as="geometry" />
        </mxCell>
        <mxCell id="cd8bKz7wEy6PBZtArWkd-62" value="+ publishMission(): void" style="text;strokeColor=none;fillColor=none;align=left;verticalAlign=top;spacingLeft=4;spacingRight=4;overflow=hidden;rotatable=0;points=[[0,0.5],[1,0.5]];portConstraint=eastwest;whiteSpace=wrap;html=1;" vertex="1" parent="cd8bKz7wEy6PBZtArWkd-59">
          <mxGeometry y="34" width="160" height="26" as="geometry" />
        </mxCell>
        <mxCell id="SpG1soqtBWokwoHgifJK-8" value="+ publishState(): void" style="text;strokeColor=none;fillColor=none;align=left;verticalAlign=top;spacingLeft=4;spacingRight=4;overflow=hidden;rotatable=0;points=[[0,0.5],[1,0.5]];portConstraint=eastwest;whiteSpace=wrap;html=1;" vertex="1" parent="cd8bKz7wEy6PBZtArWkd-59">
          <mxGeometry y="60" width="160" height="26" as="geometry" />
        </mxCell>
        <mxCell id="cd8bKz7wEy6PBZtArWkd-63" value="+ publishWheelRPM(): void" style="text;strokeColor=none;fillColor=none;align=left;verticalAlign=top;spacingLeft=4;spacingRight=4;overflow=hidden;rotatable=0;points=[[0,0.5],[1,0.5]];portConstraint=eastwest;whiteSpace=wrap;html=1;" vertex="1" parent="cd8bKz7wEy6PBZtArWkd-59">
          <mxGeometry y="86" width="160" height="26" as="geometry" />
        </mxCell>
        <mxCell id="cd8bKz7wEy6PBZtArWkd-117" value="&amp;lt;&amp;lt;enumeration&amp;gt;&amp;gt;&lt;br&gt;State" style="swimlane;fontStyle=1;align=center;verticalAlign=top;childLayout=stackLayout;horizontal=1;startSize=37;horizontalStack=0;resizeParent=1;resizeParentMax=0;resizeLast=0;collapsible=1;marginBottom=0;whiteSpace=wrap;html=1;" vertex="1" parent="1">
          <mxGeometry x="550" y="489" width="160" height="171" as="geometry">
            <mxRectangle x="405" y="353" width="70" height="30" as="alternateBounds" />
          </mxGeometry>
        </mxCell>
        <mxCell id="cd8bKz7wEy6PBZtArWkd-118" value="AS_OFF" style="text;strokeColor=none;fillColor=none;align=left;verticalAlign=top;spacingLeft=4;spacingRight=4;overflow=hidden;rotatable=0;points=[[0,0.5],[1,0.5]];portConstraint=eastwest;whiteSpace=wrap;html=1;" vertex="1" parent="cd8bKz7wEy6PBZtArWkd-117">
          <mxGeometry y="37" width="160" height="26" as="geometry" />
        </mxCell>
        <mxCell id="cd8bKz7wEy6PBZtArWkd-121" value="AS_Ready" style="text;strokeColor=none;fillColor=none;align=left;verticalAlign=top;spacingLeft=4;spacingRight=4;overflow=hidden;rotatable=0;points=[[0,0.5],[1,0.5]];portConstraint=eastwest;whiteSpace=wrap;html=1;" vertex="1" parent="cd8bKz7wEy6PBZtArWkd-117">
          <mxGeometry y="63" width="160" height="26" as="geometry" />
        </mxCell>
        <mxCell id="cd8bKz7wEy6PBZtArWkd-123" value="AS_Driving" style="text;strokeColor=none;fillColor=none;align=left;verticalAlign=top;spacingLeft=4;spacingRight=4;overflow=hidden;rotatable=0;points=[[0,0.5],[1,0.5]];portConstraint=eastwest;whiteSpace=wrap;html=1;" vertex="1" parent="cd8bKz7wEy6PBZtArWkd-117">
          <mxGeometry y="89" width="160" height="26" as="geometry" />
        </mxCell>
        <mxCell id="cd8bKz7wEy6PBZtArWkd-122" value="AS_Finished" style="text;strokeColor=none;fillColor=none;align=left;verticalAlign=top;spacingLeft=4;spacingRight=4;overflow=hidden;rotatable=0;points=[[0,0.5],[1,0.5]];portConstraint=eastwest;whiteSpace=wrap;html=1;" vertex="1" parent="cd8bKz7wEy6PBZtArWkd-117">
          <mxGeometry y="115" width="160" height="26" as="geometry" />
        </mxCell>
        <mxCell id="cd8bKz7wEy6PBZtArWkd-124" value="AS_Emergency" style="text;strokeColor=none;fillColor=none;align=left;verticalAlign=top;spacingLeft=4;spacingRight=4;overflow=hidden;rotatable=0;points=[[0,0.5],[1,0.5]];portConstraint=eastwest;whiteSpace=wrap;html=1;" vertex="1" parent="cd8bKz7wEy6PBZtArWkd-117">
          <mxGeometry y="141" width="160" height="30" as="geometry" />
        </mxCell>
        <mxCell id="cd8bKz7wEy6PBZtArWkd-130" style="edgeStyle=orthogonalEdgeStyle;rounded=0;orthogonalLoop=1;jettySize=auto;html=1;endArrow=none;endFill=0;dashed=1;" edge="1" parent="1" source="cd8bKz7wEy6PBZtArWkd-129" target="cd8bKz7wEy6PBZtArWkd-59">
          <mxGeometry relative="1" as="geometry" />
        </mxCell>
        <mxCell id="cd8bKz7wEy6PBZtArWkd-129" value="Contantly publish or on change?" style="shape=note2;boundedLbl=1;whiteSpace=wrap;html=1;size=25;verticalAlign=top;align=center;" vertex="1" parent="1">
          <mxGeometry x="120" y="-34" width="120" height="80" as="geometry" />
        </mxCell>
        <mxCell id="cd8bKz7wEy6PBZtArWkd-132" value="&lt;font style=&quot;font-size: 19px;&quot;&gt;All classes are singletones and can be simply files and variables&lt;/font&gt;" style="shape=note2;boundedLbl=1;whiteSpace=wrap;html=1;size=25;verticalAlign=top;align=center;fontSize=19;" vertex="1" parent="1">
          <mxGeometry x="730" y="489" width="180" height="171" as="geometry" />
        </mxCell>
        <mxCell id="cd8bKz7wEy6PBZtArWkd-134" value="Communication" style="shape=umlFrame;whiteSpace=wrap;html=1;pointerEvents=0;width=110;height=30;fillColor=#fff2cc;strokeColor=#d6b656;" vertex="1" parent="1">
          <mxGeometry x="-160" y="-80" width="640" height="360" as="geometry" />
        </mxCell>
        <mxCell id="cd8bKz7wEy6PBZtArWkd-135" value="Logic" style="shape=umlFrame;whiteSpace=wrap;html=1;pointerEvents=0;width=60;height=30;perimeterSpacing=1;strokeColor=#6c8ebf;fillColor=#dae8fc;" vertex="1" parent="1">
          <mxGeometry x="-160" y="280" width="1100" height="440" as="geometry" />
        </mxCell>
        <mxCell id="cd8bKz7wEy6PBZtArWkd-136" value="Hardware" style="shape=umlFrame;whiteSpace=wrap;html=1;pointerEvents=0;width=90;height=30;fillColor=#f8cecc;strokeColor=#b85450;" vertex="1" parent="1">
          <mxGeometry x="480" y="-80" width="460" height="360" as="geometry" />
        </mxCell>
        <mxCell id="SpG1soqtBWokwoHgifJK-116" style="edgeStyle=orthogonalEdgeStyle;rounded=0;orthogonalLoop=1;jettySize=auto;html=1;jumpStyle=arc;" edge="1" parent="1" source="ALT-fmMY88AuAGFekgje-1" target="cd8bKz7wEy6PBZtArWkd-26">
          <mxGeometry relative="1" as="geometry">
            <Array as="points">
              <mxPoint x="480" y="310" />
              <mxPoint x="690" y="310" />
            </Array>
          </mxGeometry>
        </mxCell>
        <mxCell id="SpG1soqtBWokwoHgifJK-117" style="edgeStyle=orthogonalEdgeStyle;rounded=0;orthogonalLoop=1;jettySize=auto;html=1;" edge="1" parent="1" source="ALT-fmMY88AuAGFekgje-1" target="cd8bKz7wEy6PBZtArWkd-59">
          <mxGeometry relative="1" as="geometry">
            <Array as="points">
              <mxPoint x="450" y="10" />
            </Array>
          </mxGeometry>
        </mxCell>
        <mxCell id="SpG1soqtBWokwoHgifJK-118" style="edgeStyle=orthogonalEdgeStyle;rounded=0;orthogonalLoop=1;jettySize=auto;html=1;" edge="1" parent="1" source="ALT-fmMY88AuAGFekgje-1" target="cd8bKz7wEy6PBZtArWkd-47">
          <mxGeometry relative="1" as="geometry">
            <Array as="points">
              <mxPoint x="500" y="100" />
            </Array>
          </mxGeometry>
        </mxCell>
        <mxCell id="SpG1soqtBWokwoHgifJK-122" value="updates" style="edgeLabel;html=1;align=center;verticalAlign=middle;resizable=0;points=[];" connectable="0" vertex="1" parent="SpG1soqtBWokwoHgifJK-118">
          <mxGeometry x="-0.2653" y="2" relative="1" as="geometry">
            <mxPoint x="12" y="-41" as="offset" />
          </mxGeometry>
        </mxCell>
        <mxCell id="ALT-fmMY88AuAGFekgje-1" value="Main Loop" style="rounded=1;whiteSpace=wrap;html=1;" vertex="1" parent="1">
          <mxGeometry x="440" y="270" width="80" height="25" as="geometry" />
        </mxCell>
        <mxCell id="SpG1soqtBWokwoHgifJK-38" value="&amp;lt;&amp;lt;struct&amp;gt;&amp;gt;&lt;br&gt;FailureDetection" style="swimlane;fontStyle=1;align=center;verticalAlign=top;childLayout=stackLayout;horizontal=1;startSize=42;horizontalStack=0;resizeParent=1;resizeParentMax=0;resizeLast=0;collapsible=1;marginBottom=0;whiteSpace=wrap;html=1;" vertex="1" parent="1">
          <mxGeometry x="-50" y="440" width="220" height="206" as="geometry" />
        </mxCell>
        <mxCell id="SpG1soqtBWokwoHgifJK-39" value="+ pc_alive_timestamp: timestamp" style="text;strokeColor=none;fillColor=none;align=left;verticalAlign=top;spacingLeft=4;spacingRight=4;overflow=hidden;rotatable=0;points=[[0,0.5],[1,0.5]];portConstraint=eastwest;whiteSpace=wrap;html=1;" vertex="1" parent="SpG1soqtBWokwoHgifJK-38">
          <mxGeometry y="42" width="220" height="26" as="geometry" />
        </mxCell>
        <mxCell id="SpG1soqtBWokwoHgifJK-40" value="+ steering_alive_timestamp: timestamp" style="text;strokeColor=none;fillColor=none;align=left;verticalAlign=top;spacingLeft=4;spacingRight=4;overflow=hidden;rotatable=0;points=[[0,0.5],[1,0.5]];portConstraint=eastwest;whiteSpace=wrap;html=1;" vertex="1" parent="SpG1soqtBWokwoHgifJK-38">
          <mxGeometry y="68" width="220" height="26" as="geometry" />
        </mxCell>
        <mxCell id="SpG1soqtBWokwoHgifJK-41" value="+ inversor_alive_timestamp: timestamp" style="text;strokeColor=none;fillColor=none;align=left;verticalAlign=top;spacingLeft=4;spacingRight=4;overflow=hidden;rotatable=0;points=[[0,0.5],[1,0.5]];portConstraint=eastwest;whiteSpace=wrap;html=1;" vertex="1" parent="SpG1soqtBWokwoHgifJK-38">
          <mxGeometry y="94" width="220" height="26" as="geometry" />
        </mxCell>
        <mxCell id="SpG1soqtBWokwoHgifJK-42" value="+ bms_alive_timestamp: timestamp" style="text;strokeColor=none;fillColor=none;align=left;verticalAlign=top;spacingLeft=4;spacingRight=4;overflow=hidden;rotatable=0;points=[[0,0.5],[1,0.5]];portConstraint=eastwest;whiteSpace=wrap;html=1;" vertex="1" parent="SpG1soqtBWokwoHgifJK-38">
          <mxGeometry y="120" width="220" height="26" as="geometry" />
        </mxCell>
        <mxCell id="Gp4d0n2mqowx_aEyTnq8-4" value="+ emergency_signal: bool" style="text;strokeColor=none;fillColor=none;align=left;verticalAlign=top;spacingLeft=4;spacingRight=4;overflow=hidden;rotatable=0;points=[[0,0.5],[1,0.5]];portConstraint=eastwest;whiteSpace=wrap;html=1;" vertex="1" parent="SpG1soqtBWokwoHgifJK-38">
          <mxGeometry y="146" width="220" height="26" as="geometry" />
        </mxCell>
        <mxCell id="Lg1imSW494IqQJo7O32--4" value="+ bamocar_tension: double" style="text;strokeColor=none;fillColor=none;align=left;verticalAlign=top;spacingLeft=4;spacingRight=4;overflow=hidden;rotatable=0;points=[[0,0.5],[1,0.5]];portConstraint=eastwest;whiteSpace=wrap;html=1;" vertex="1" parent="SpG1soqtBWokwoHgifJK-38">
          <mxGeometry y="172" width="220" height="26" as="geometry" />
        </mxCell>
        <mxCell id="SpG1soqtBWokwoHgifJK-50" value="" style="line;strokeWidth=1;fillColor=none;align=left;verticalAlign=middle;spacingTop=-1;spacingLeft=3;spacingRight=3;rotatable=0;labelPosition=right;points=[];portConstraint=eastwest;strokeColor=inherit;" vertex="1" parent="SpG1soqtBWokwoHgifJK-38">
          <mxGeometry y="198" width="220" height="8" as="geometry" />
        </mxCell>
        <mxCell id="SpG1soqtBWokwoHgifJK-55" value="&lt;div&gt;&amp;lt;&amp;lt;struct&amp;gt;&amp;gt;&lt;/div&gt;InternalLogics" style="swimlane;fontStyle=1;align=center;verticalAlign=top;childLayout=stackLayout;horizontal=1;startSize=40;horizontalStack=0;resizeParent=1;resizeParentMax=0;resizeLast=0;collapsible=1;marginBottom=0;whiteSpace=wrap;html=1;" vertex="1" parent="1">
          <mxGeometry x="-50" y="310" width="220" height="100" as="geometry" />
        </mxCell>
        <mxCell id="SpG1soqtBWokwoHgifJK-56" value="+ ready_timestamp: timestamp" style="text;strokeColor=none;fillColor=none;align=left;verticalAlign=top;spacingLeft=4;spacingRight=4;overflow=hidden;rotatable=0;points=[[0,0.5],[1,0.5]];portConstraint=eastwest;whiteSpace=wrap;html=1;" vertex="1" parent="SpG1soqtBWokwoHgifJK-55">
          <mxGeometry y="40" width="220" height="26" as="geometry" />
        </mxCell>
        <mxCell id="SpG1soqtBWokwoHgifJK-57" value="+ go: bool" style="text;strokeColor=none;fillColor=none;align=left;verticalAlign=top;spacingLeft=4;spacingRight=4;overflow=hidden;rotatable=0;points=[[0,0.5],[1,0.5]];portConstraint=eastwest;whiteSpace=wrap;html=1;" vertex="1" parent="SpG1soqtBWokwoHgifJK-55">
          <mxGeometry y="66" width="220" height="26" as="geometry" />
        </mxCell>
        <mxCell id="SpG1soqtBWokwoHgifJK-62" value="" style="line;strokeWidth=1;fillColor=none;align=left;verticalAlign=middle;spacingTop=-1;spacingLeft=3;spacingRight=3;rotatable=0;labelPosition=right;points=[];portConstraint=eastwest;strokeColor=inherit;" vertex="1" parent="SpG1soqtBWokwoHgifJK-55">
          <mxGeometry y="92" width="220" height="8" as="geometry" />
        </mxCell>
        <mxCell id="SpG1soqtBWokwoHgifJK-81" style="edgeStyle=orthogonalEdgeStyle;rounded=0;orthogonalLoop=1;jettySize=auto;html=1;" edge="1" parent="1" source="cd8bKz7wEy6PBZtArWkd-43" target="SpG1soqtBWokwoHgifJK-38">
          <mxGeometry relative="1" as="geometry">
            <Array as="points">
              <mxPoint x="210" y="470" />
              <mxPoint x="210" y="560" />
            </Array>
          </mxGeometry>
        </mxCell>
        <mxCell id="SpG1soqtBWokwoHgifJK-95" value="checks" style="edgeLabel;html=1;align=center;verticalAlign=middle;resizable=0;points=[];" connectable="0" vertex="1" parent="SpG1soqtBWokwoHgifJK-81">
          <mxGeometry x="-0.111" y="5" relative="1" as="geometry">
            <mxPoint x="25" y="-26" as="offset" />
          </mxGeometry>
        </mxCell>
        <mxCell id="SpG1soqtBWokwoHgifJK-100" value="Sensors CAN" style="swimlane;fontStyle=1;align=center;verticalAlign=top;childLayout=stackLayout;horizontal=1;startSize=26;horizontalStack=0;resizeParent=1;resizeParentMax=0;resizeLast=0;collapsible=1;marginBottom=0;whiteSpace=wrap;html=1;" vertex="1" parent="1">
          <mxGeometry x="180" y="96" width="220" height="144" as="geometry" />
        </mxCell>
        <mxCell id="SpG1soqtBWokwoHgifJK-101" value="+ hydraulic_line_pressure: double" style="text;strokeColor=none;fillColor=none;align=left;verticalAlign=top;spacingLeft=4;spacingRight=4;overflow=hidden;rotatable=0;points=[[0,0.5],[1,0.5]];portConstraint=eastwest;whiteSpace=wrap;html=1;" vertex="1" parent="SpG1soqtBWokwoHgifJK-100">
          <mxGeometry y="26" width="220" height="24" as="geometry" />
        </mxCell>
        <mxCell id="SpG1soqtBWokwoHgifJK-105" value="+ rl_wheel_rpm: double" style="text;strokeColor=none;fillColor=none;align=left;verticalAlign=top;spacingLeft=4;spacingRight=4;overflow=hidden;rotatable=0;points=[[0,0.5],[1,0.5]];portConstraint=eastwest;whiteSpace=wrap;html=1;" vertex="1" parent="SpG1soqtBWokwoHgifJK-100">
          <mxGeometry y="50" width="220" height="26" as="geometry" />
        </mxCell>
        <mxCell id="SpG1soqtBWokwoHgifJK-107" value="" style="line;strokeWidth=1;fillColor=none;align=left;verticalAlign=middle;spacingTop=-1;spacingLeft=3;spacingRight=3;rotatable=0;labelPosition=right;points=[];portConstraint=eastwest;strokeColor=inherit;" vertex="1" parent="SpG1soqtBWokwoHgifJK-100">
          <mxGeometry y="76" width="220" height="8" as="geometry" />
        </mxCell>
        <mxCell id="SpG1soqtBWokwoHgifJK-108" value="+ updateRL(double): double" style="text;strokeColor=none;fillColor=none;align=left;verticalAlign=top;spacingLeft=4;spacingRight=4;overflow=hidden;rotatable=0;points=[[0,0.5],[1,0.5]];portConstraint=eastwest;whiteSpace=wrap;html=1;" vertex="1" parent="SpG1soqtBWokwoHgifJK-100">
          <mxGeometry y="84" width="220" height="30" as="geometry" />
        </mxCell>
        <mxCell id="SpG1soqtBWokwoHgifJK-111" value="+ updateHydraulic(double): double" style="text;strokeColor=none;fillColor=none;align=left;verticalAlign=top;spacingLeft=4;spacingRight=4;overflow=hidden;rotatable=0;points=[[0,0.5],[1,0.5]];portConstraint=eastwest;whiteSpace=wrap;html=1;" vertex="1" parent="SpG1soqtBWokwoHgifJK-100">
          <mxGeometry y="114" width="220" height="30" as="geometry" />
        </mxCell>
        <mxCell id="SpG1soqtBWokwoHgifJK-84" style="edgeStyle=orthogonalEdgeStyle;rounded=0;orthogonalLoop=1;jettySize=auto;html=1;jumpStyle=line;" edge="1" parent="1" source="cd8bKz7wEy6PBZtArWkd-43" target="cd8bKz7wEy6PBZtArWkd-47">
          <mxGeometry relative="1" as="geometry">
            <Array as="points">
              <mxPoint x="560" y="350" />
            </Array>
          </mxGeometry>
        </mxCell>
        <mxCell id="SpG1soqtBWokwoHgifJK-94" value="checks" style="edgeLabel;html=1;align=center;verticalAlign=middle;resizable=0;points=[];" connectable="0" vertex="1" parent="SpG1soqtBWokwoHgifJK-84">
          <mxGeometry x="-0.2649" y="4" relative="1" as="geometry">
            <mxPoint x="-24" y="6" as="offset" />
          </mxGeometry>
        </mxCell>
      </root>
    </mxGraphModel>
  </diagram>
</mxfile>
